<?xml version="1.0" encoding="utf-8"?>
<!-- Generator: Adobe Illustrator 22.0.1, SVG Export Plug-In . SVG Version: 6.00 Build 0)  -->
<svg version="1.1" id="Layer_1" xmlns="http://www.w3.org/2000/svg" xmlns:xlink="http://www.w3.org/1999/xlink" x="0px" y="0px"
	 viewBox="0 0 342 96" style="enable-background:new 0 0 342 96;" xml:space="preserve">
<style type="text/css">
	.st0{fill:#C3C6CC;}
	.st1{fill:#E1E3E6;}
	.st2{fill:#262933;}
</style>
<path class="st0" d="M95.1,90.9L77,72.9c-1.2-1.2-3.1-1.2-4.3,0L54.7,90.9c-1.9,1.9-0.6,5.1,2.1,5.1H93C95.7,96,97,92.7,95.1,90.9z"
	/>
<path class="st1" d="M95.7,26L90,9.2c-0.3-0.9-0.7-1.5-1.2-2.1L0.7,95.3C1.2,95.8,1.9,96,2.6,96h25c1.4,0,2.7-0.5,3.8-1.5l63.1-63.1
	C95.9,30,96.4,27.9,95.7,26z"/>
<path class="st0" d="M86.8,6L70,0.3c-1.9-0.7-3.9-0.2-5.3,1.2L1.5,64.6c-1,1-1.5,2.4-1.5,3.8v25c0,0.7,0.2,1.4,0.7,1.9L88.8,7.2
	C88.3,6.6,87.6,6.3,86.8,6z"/>
<path class="st2" d="M327.8,46.6c0,1.2-0.2,2.1-0.7,2.8c-0.4,0.7-1,1.2-1.8,1.5c-0.7,0.3-1.6,0.5-2.5,0.6c-0.9,0.1-1.9,0.1-2.8,0.1
	h-3.3v-9.9h3.6c0.8,0,1.7,0,2.6,0.1c0.9,0.1,1.7,0.3,2.4,0.6c0.7,0.3,1.3,0.8,1.7,1.5C327.6,44.7,327.8,45.5,327.8,46.6z M329,72h9
	l-4.9-7.3c-0.8-1.2-1.7-2.4-2.6-3.6c-0.9-1.2-1.6-2.1-2.2-2.9c-0.5-0.8-1.1-1.4-1.6-1.7c2.6-0.3,4.7-1.3,6.4-3.1
	c1.7-1.8,2.5-4.1,2.5-7c0-3.2-1.2-5.9-3.7-8c-1.2-0.9-2.6-1.6-4.2-2c-1.7-0.4-3.7-0.6-6.1-0.6h-12.1v36h7.4V57
	c0.8,0,1.5,0.2,2.1,0.5c0.5,0.4,1,0.8,1.5,1.3c0.5,0.6,1.1,1.4,1.8,2.5c0.7,1.1,1.8,2.7,3.2,4.9L329,72z M266.5,72h23.1v-6.3H274
	v-9.6h11.7v-5.9h-11.8v-8.3H288l1.1-5.9h-22.6V72z M237.5,72l14-36h-7.8l-7.1,18.7c-0.3,0.8-0.6,1.6-0.9,2.6c-0.3,1-0.5,1.9-0.8,2.8
	c-0.2,0.9-0.4,1.6-0.5,2.2l-0.2,0.9l-0.3-0.9c-0.1-0.6-0.3-1.4-0.5-2.2c-0.2-0.9-0.5-1.8-0.8-2.8c-0.3-1-0.6-1.8-0.8-2.6L225.2,36
	H217l13.8,36H237.5z M179,72h23.1v-6.3h-15.6v-9.6h11.7v-5.9h-11.8v-8.3h14.1l1.1-5.9H179V72z M158.7,72l1.4-6.1h-14.6V36H138v36
	H158.7z"/>
</svg>
